<?xml version="1.0" standalone="no"?>
<!DOCTYPE svg PUBLIC "-//W3C//DTD SVG 20010904//EN"
 "http://www.w3.org/TR/2001/REC-SVG-20010904/DTD/svg10.dtd">
<svg version="1.0" xmlns="http://www.w3.org/2000/svg"
 width="457.000000pt" height="457.000000pt" viewBox="0 0 457.000000 457.000000"
 preserveAspectRatio="xMidYMid meet">
<metadata>
Created by potrace 1.11, written by Peter Selinger 2001-2013
</metadata>
<g transform="translate(0.000000,457.000000) scale(0.100000,-0.100000)"
fill="#000000" stroke="none">
<path d="M3113 4178 c-4 -7 -8 -15 -9 -18 -5 -29 -19 -67 -27 -77 -5 -7 -6
-13 -2 -13 4 0 2 -6 -4 -13 -6 -8 -8 -17 -5 -20 3 -3 2 -12 -2 -19 -9 -13 -14
-33 -16 -55 -1 -7 -6 -13 -11 -13 -6 0 -8 -3 -4 -6 3 -4 0 -22 -9 -42 -8 -19
-12 -37 -9 -40 3 -3 -1 -12 -7 -20 -7 -8 -13 -20 -14 -26 0 -6 -2 -19 -2 -29
-1 -10 -6 -16 -10 -13 -10 6 -9 -31 1 -41 4 -4 41 -6 82 -6 55 1 74 -2 69 -10
-5 -8 -2 -8 7 1 7 6 30 12 51 12 24 0 38 -5 38 -12 0 -9 2 -10 8 -2 4 7 45 11
115 11 103 -1 107 -1 107 -23 0 -12 -7 -27 -15 -34 -9 -7 -13 -15 -10 -18 3
-3 -3 -14 -12 -25 -13 -15 -14 -18 -3 -12 13 8 13 6 2 -8 -8 -9 -11 -21 -7
-27 3 -5 1 -10 -5 -10 -6 0 -8 -4 -5 -10 3 -5 2 -10 -4 -10 -5 0 -8 -9 -6 -20
2 -11 -1 -20 -6 -20 -6 0 -8 -4 -4 -9 3 -5 1 -12 -4 -15 -5 -3 -7 -16 -3 -28
4 -16 2 -19 -8 -13 -10 6 -12 3 -8 -13 4 -12 3 -22 -2 -22 -7 0 -17 -36 -22
-77 -1 -7 -4 -13 -8 -13 -6 0 -8 -8 -12 -50 -1 -11 -6 -20 -11 -20 -4 0 -7 -6
-6 -12 2 -13 -2 -26 -22 -76 -5 -13 -9 -32 -9 -42 0 -11 -4 -20 -8 -20 -7 0
-11 -16 -14 -57 -1 -7 -4 -13 -7 -13 -4 0 -8 -12 -9 -26 -1 -15 -7 -33 -13
-40 -6 -8 -8 -14 -4 -14 4 0 3 -6 -2 -12 -6 -7 -9 -21 -8 -30 2 -10 -1 -18 -6
-18 -6 0 -7 -4 -4 -10 3 -5 1 -10 -5 -10 -6 0 -8 -4 -5 -10 3 -5 3 -16 -2 -22
-4 -7 -8 -15 -8 -18 -5 -32 -18 -70 -25 -70 -4 0 -6 -9 -3 -20 3 -11 0 -20 -6
-20 -5 0 -8 -7 -5 -15 4 -8 2 -15 -3 -15 -5 0 -10 -12 -11 -27 -1 -15 -6 -29
-10 -32 -4 -3 -7 -16 -6 -28 1 -13 -3 -23 -8 -23 -5 0 -7 -4 -3 -9 3 -5 1 -12
-5 -16 -6 -4 -8 -11 -5 -16 4 -5 2 -9 -3 -9 -5 0 -8 -11 -7 -25 2 -14 -1 -25
-6 -25 -5 0 -9 -8 -9 -17 0 -10 -7 -31 -15 -46 -9 -18 -10 -25 -2 -20 7 4 7 0
-2 -10 -7 -9 -10 -17 -6 -17 4 0 2 -7 -5 -15 -7 -8 -9 -15 -4 -15 4 0 3 -5 -4
-12 -7 -7 -12 -20 -12 -30 0 -11 -9 -37 -19 -59 -11 -21 -15 -37 -10 -33 14 8
10 -3 -7 -20 -8 -9 -11 -16 -5 -16 6 0 11 -5 11 -11 0 -5 -4 -7 -10 -4 -9 5
-14 -16 -13 -52 1 -7 -3 -13 -8 -13 -5 0 -9 -8 -9 -17 0 -10 -7 -31 -15 -46
-9 -18 -10 -25 -2 -20 9 5 9 3 0 -9 -7 -8 -10 -18 -6 -21 3 -4 1 -7 -5 -7 -7
0 -11 -3 -11 -7 1 -5 0 -10 -1 -13 -1 -3 -4 -18 -6 -35 -3 -16 -9 -31 -14 -33
-5 -2 -6 -10 -3 -19 4 -11 2 -14 -5 -9 -7 4 -10 -1 -7 -14 2 -11 0 -22 -5 -25
-5 -3 -6 -13 -3 -22 5 -12 3 -14 -7 -8 -10 6 -12 4 -7 -8 3 -9 -2 -37 -13 -62
-11 -26 -16 -43 -11 -40 6 3 2 -9 -7 -27 -16 -33 -20 -47 -24 -80 -1 -10 -6
-18 -10 -18 -4 0 -7 -3 -7 -7 4 -22 -2 -44 -10 -39 -4 3 -7 -6 -5 -19 1 -14
-2 -25 -7 -25 -6 0 -7 -5 -4 -10 4 -6 1 -18 -7 -27 -11 -14 -11 -16 2 -8 9 5
8 0 -4 -13 -11 -12 -16 -22 -11 -22 4 0 2 -6 -4 -13 -6 -8 -8 -17 -4 -21 4 -4
1 -11 -7 -16 -13 -9 -13 -10 0 -10 12 -1 12 -3 -2 -11 -10 -5 -15 -16 -12 -24
4 -8 2 -15 -4 -15 -6 0 -9 -8 -7 -17 1 -10 -4 -29 -12 -41 -8 -13 -12 -26 -9
-29 3 -4 1 -12 -5 -20 -6 -7 -9 -13 -6 -13 3 0 -1 -16 -9 -35 -8 -20 -12 -40
-9 -45 4 -6 1 -10 -5 -10 -7 0 -9 -7 -6 -15 3 -9 -1 -18 -9 -22 -12 -4 -13 -9
-4 -19 9 -11 8 -14 -1 -14 -7 0 -10 -7 -6 -16 4 -10 2 -13 -6 -8 -8 5 -9 2 -5
-9 4 -10 1 -17 -6 -17 -9 0 -8 -3 1 -9 11 -7 11 -9 -2 -14 -8 -3 -15 -14 -15
-24 -1 -37 -5 -53 -11 -53 -4 0 -7 -6 -8 -12 0 -7 -3 -20 -5 -28 -3 -8 -8 -30
-12 -47 -4 -18 -11 -33 -16 -33 -5 0 -6 -6 -3 -14 3 -8 0 -17 -5 -21 -6 -3 -9
-11 -5 -16 3 -5 0 -16 -6 -24 -6 -8 -9 -19 -5 -25 3 -5 1 -10 -5 -10 -7 0 -10
-7 -6 -15 3 -8 2 -15 -3 -15 -4 0 -8 -6 -9 -12 -1 -24 -11 -60 -31 -114 l-21
-54 425 0 c416 0 425 0 435 20 6 11 8 25 5 30 -3 6 -1 10 5 10 6 0 9 4 5 9 -3
5 -1 12 4 15 4 3 9 17 9 32 0 14 3 29 8 33 9 6 15 23 17 53 1 10 4 18 8 18 7
0 18 47 22 92 1 14 5 24 9 21 5 -2 9 3 9 11 2 25 4 30 12 44 5 6 6 12 2 12 -3
0 0 10 7 23 7 12 14 27 14 32 1 6 3 12 4 15 1 3 3 16 6 30 2 14 11 39 19 57 9
17 15 35 14 40 -2 8 16 57 28 76 4 6 1 7 -8 2 -11 -7 -12 -6 -2 6 7 9 14 26
17 40 2 13 10 23 17 21 10 -3 10 0 -1 12 -7 9 -8 16 -3 16 5 0 10 6 11 13 1
12 9 47 12 57 1 3 2 8 1 13 0 4 5 7 11 7 9 0 8 4 -2 10 -11 7 -11 10 -2 10 7
0 10 5 7 10 -3 6 -1 10 4 10 6 0 10 3 9 7 -1 5 4 28 11 53 7 25 12 45 11 45
-1 0 5 17 13 38 9 20 13 37 10 37 -3 0 0 7 7 15 7 8 9 15 5 15 -4 0 -2 7 5 15
7 8 9 15 4 15 -4 0 -3 5 3 11 6 6 9 18 6 25 -3 8 0 14 7 14 7 0 10 6 7 14 -3
7 1 24 10 35 8 12 12 25 9 28 -3 3 0 15 6 27 12 21 17 43 21 83 1 11 5 19 10
16 6 -3 9 19 6 43 0 4 4 10 9 13 6 3 12 21 15 40 3 19 9 37 14 40 4 3 8 15 8
26 0 11 5 31 12 44 6 14 10 28 7 33 -3 4 -1 8 3 8 5 0 10 12 11 27 1 15 5 29
10 32 4 3 9 17 10 31 2 14 9 31 14 38 6 7 8 15 4 19 -3 3 0 16 7 27 8 12 13
29 11 39 -1 9 1 17 5 17 4 0 8 7 9 15 1 8 3 22 4 30 1 8 6 15 11 15 6 0 8 3 4
6 -3 3 -1 18 5 33 9 23 13 40 21 76 2 6 6 16 10 23 5 6 6 12 2 12 -3 0 0 10 7
23 7 12 11 26 10 31 -2 4 3 15 10 24 11 13 11 14 -1 8 -9 -6 -8 -1 3 16 9 14
18 40 21 57 2 18 9 39 16 47 6 8 8 14 4 14 -4 0 -2 7 5 15 7 8 9 15 5 15 -4 0
-1 8 6 17 12 15 12 16 -1 8 -13 -8 -13 -7 -1 9 8 10 16 25 17 34 2 10 4 26 6
37 2 11 6 22 10 25 4 3 9 19 12 35 3 16 10 31 16 33 5 2 7 15 4 28 -3 13 -2
24 3 24 5 0 10 6 11 13 1 16 7 38 16 59 4 9 5 21 2 27 -3 5 -1 11 5 13 7 2 13
17 15 33 2 16 7 31 13 33 5 2 7 12 4 22 -3 11 0 20 6 20 5 0 8 7 5 15 -4 8 -2
15 4 15 6 0 9 8 8 18 -3 16 0 24 24 72 6 12 8 25 5 30 -4 6 0 10 7 10 9 0 9 3
-2 10 -8 5 -10 10 -4 10 7 0 17 21 24 48 16 58 17 60 20 70 1 4 2 10 1 15 0 4
3 7 8 7 6 0 8 9 6 20 -2 11 1 22 6 25 5 4 7 10 4 15 -3 5 -1 11 5 15 5 3 10
17 10 31 0 13 4 24 9 24 6 0 8 9 6 20 -2 11 0 20 6 20 5 0 8 3 7 8 -1 4 2 19
6 33 4 14 9 34 11 45 2 10 4 21 5 24 1 3 2 8 1 13 0 4 4 7 9 7 6 0 10 6 9 13
-1 6 3 25 9 40 7 16 10 33 6 38 -3 5 -1 9 4 9 5 0 9 6 10 13 1 6 3 22 4 35 2
12 8 26 13 30 9 6 14 23 17 60 1 6 5 12 9 12 4 0 5 10 1 22 -3 14 -1 19 6 14
8 -5 10 -2 6 8 -3 9 -2 16 3 16 5 0 9 8 9 18 1 9 4 25 9 34 6 16 -33 17 -658
18 -526 0 -667 -2 -674 -12z"/>
<path d="M1961 3627 c-1 -12 -3 -30 -4 -39 -1 -10 -5 -18 -9 -18 -4 0 -7 -3
-6 -7 1 -5 -4 -24 -11 -43 -16 -40 -17 -47 -19 -78 -1 -15 -6 -21 -14 -16 -7
4 -8 3 -4 -4 4 -6 0 -27 -8 -47 -9 -20 -11 -33 -6 -30 5 3 3 -7 -5 -22 -7 -16
-16 -38 -20 -50 l-6 -23 273 -1 c150 -1 277 -1 281 0 4 1 2 -9 -5 -21 -7 -13
-11 -27 -10 -32 2 -4 -3 -14 -9 -22 -6 -8 -8 -14 -4 -14 4 0 2 -6 -4 -13 -6
-8 -8 -17 -4 -20 3 -4 2 -7 -3 -7 -5 0 -11 -9 -12 -20 -4 -42 -6 -50 -11 -50
-4 0 -8 -12 -9 -26 -1 -15 -7 -33 -13 -40 -6 -7 -8 -18 -4 -24 3 -5 1 -10 -6
-10 -7 0 -9 -3 -6 -7 4 -3 1 -13 -6 -21 -10 -13 -9 -14 3 -7 12 7 12 5 -1 -11
-9 -10 -14 -25 -12 -31 3 -7 0 -13 -7 -13 -6 0 -8 -4 -5 -10 3 -5 3 -16 -2
-22 -4 -7 -8 -15 -8 -18 -1 -3 -6 -23 -13 -44 -6 -22 -9 -43 -7 -47 3 -4 1 -9
-5 -11 -11 -3 -21 -38 -23 -75 -1 -12 -4 -20 -8 -17 -5 2 -11 -12 -15 -33 -4
-21 -11 -43 -16 -50 -5 -6 -8 -17 -7 -25 3 -24 -1 -39 -9 -34 -4 2 -9 -10 -10
-27 -2 -17 -6 -34 -11 -37 -4 -3 -7 -13 -5 -22 1 -10 -2 -20 -7 -24 -5 -3 -7
-10 -4 -15 4 -5 1 -9 -5 -9 -6 0 -9 -4 -6 -8 3 -5 -1 -20 -8 -33 -7 -14 -13
-31 -14 -39 -1 -24 -7 -44 -15 -57 -5 -7 -5 -17 -2 -23 3 -5 1 -10 -4 -10 -6
0 -10 -3 -9 -7 3 -15 -25 -103 -32 -103 -5 0 -6 -9 -3 -20 3 -12 0 -20 -7 -20
-7 0 -10 -7 -6 -15 3 -8 0 -15 -7 -15 -8 0 -6 -4 3 -10 11 -7 11 -10 2 -10 -7
0 -10 -4 -7 -10 3 -5 1 -10 -5 -10 -6 0 -8 -4 -5 -10 3 -5 1 -10 -5 -10 -6 0
-8 -5 -4 -11 3 -6 2 -21 -3 -32 -16 -35 -33 -92 -33 -111 0 -9 -4 -15 -8 -12
-4 2 -8 -3 -9 -12 -3 -41 -8 -62 -13 -62 -4 0 -7 -6 -8 -12 -6 -48 -22 -98
-31 -98 -4 0 -7 -10 -6 -22 1 -13 -4 -36 -12 -51 -8 -15 -11 -32 -8 -37 3 -6
1 -10 -5 -10 -7 0 -10 -7 -7 -15 4 -8 2 -17 -4 -20 -5 -4 -7 -11 -4 -16 4 -5
2 -9 -4 -9 -5 0 -8 -9 -6 -20 2 -11 0 -18 -6 -15 -5 4 -9 -5 -9 -19 0 -14 0
-28 0 -31 0 -3 -9 -21 -20 -40 -13 -24 -16 -35 -7 -35 8 0 7 -4 -3 -10 -8 -5
-11 -10 -7 -10 4 0 2 -10 -5 -23 -12 -22 -17 -38 -20 -69 -1 -10 -5 -18 -8
-18 -4 0 -7 -6 -8 -12 0 -7 -3 -24 -7 -38 -3 -14 -7 -31 -9 -38 -1 -8 -9 -18
-17 -23 -12 -7 -12 -9 1 -9 11 0 11 -3 2 -12 -7 -7 -12 -23 -12 -36 0 -13 -4
-21 -9 -17 -6 3 -8 -3 -6 -15 2 -11 -1 -22 -6 -25 -5 -4 -7 -10 -4 -15 3 -5 1
-11 -4 -15 -6 -3 -8 -12 -4 -20 3 -8 1 -15 -4 -15 -5 0 -9 -10 -10 -22 -1 -11
-7 -24 -14 -28 -8 -6 -8 -9 2 -13 9 -4 10 -6 2 -6 -7 -1 -10 -8 -6 -18 4 -11
3 -14 -5 -9 -8 5 -10 2 -6 -8 3 -9 1 -16 -4 -16 -6 0 -9 -9 -7 -20 2 -11 -1
-22 -6 -25 -5 -4 -7 -11 -4 -16 4 -5 0 -9 -7 -9 -11 0 -10 -2 0 -9 11 -7 11
-9 -2 -14 -9 -4 -13 -13 -10 -22 3 -8 2 -15 -2 -15 -5 0 -10 -14 -11 -31 -1
-17 -7 -37 -12 -43 -6 -7 -13 -31 -17 -54 l-7 -42 394 2 c306 2 394 6 395 16
1 6 3 15 4 20 1 4 2 10 1 15 0 4 3 7 7 7 5 0 9 6 10 13 2 22 7 42 15 55 5 6 6
16 2 21 -3 5 0 15 7 23 7 7 14 20 15 28 4 35 15 75 21 80 7 5 8 9 16 53 3 12
5 23 7 25 1 1 2 5 3 10 1 4 8 18 15 31 11 20 11 22 -1 15 -11 -6 -11 -5 1 9 7
9 11 24 7 32 -3 9 -2 13 4 10 6 -3 10 -3 11 2 2 19 8 46 15 61 4 9 8 24 10 32
3 19 12 53 14 60 1 3 2 8 1 13 0 4 3 7 9 7 5 0 7 7 4 15 -4 8 -2 15 4 15 6 0
9 11 8 25 -2 13 0 22 4 20 5 -3 10 2 14 10 3 8 1 15 -5 15 -5 0 -2 11 7 25 9
14 13 25 9 25 -4 0 -2 6 4 13 6 8 8 17 4 20 -3 4 -1 7 5 7 6 0 9 11 6 25 -3
17 1 27 12 32 13 5 13 7 2 14 -10 7 -11 9 0 9 7 0 11 4 7 9 -3 5 -1 12 5 16 6
4 8 11 5 16 -4 5 -2 9 4 9 6 0 8 6 5 14 -3 8 -1 17 5 21 6 3 11 19 11 34 0 15
4 31 9 37 6 5 12 23 15 39 2 17 5 32 6 35 1 3 2 8 1 13 0 4 4 7 10 7 5 0 7 5
4 10 -3 6 -1 10 5 10 6 0 9 4 6 9 -3 5 1 28 10 52 8 24 18 53 20 64 3 11 7 27
9 35 2 8 4 15 5 15 3 0 12 39 13 57 1 9 6 14 11 11 5 -4 7 1 3 10 -4 10 -1 17
5 17 6 0 9 3 5 6 -3 4 0 21 7 38 7 17 14 34 14 39 1 4 2 8 3 10 4 12 10 44 11
55 1 6 6 12 11 12 6 0 8 3 4 6 -3 3 1 23 8 45 8 21 11 39 7 39 -4 0 -2 4 5 8
6 4 13 21 16 38 3 17 10 41 16 53 7 11 10 21 7 21 -3 0 1 15 9 34 8 18 11 36
8 40 -4 3 -1 6 5 6 6 0 9 9 7 20 -2 11 1 20 7 20 6 0 8 3 5 7 -4 3 -3 11 2 17
5 6 11 25 13 41 2 17 6 32 10 35 6 5 17 45 21 80 1 8 9 20 17 27 13 11 13 12
0 13 -12 0 -12 2 -2 9 8 5 15 20 15 35 1 14 5 26 9 26 4 0 5 7 2 15 -4 8 -1
15 5 15 6 0 10 3 10 8 -1 4 0 9 1 12 1 3 4 18 6 35 3 16 9 34 13 40 7 9 13 28
28 85 2 8 5 25 6 37 1 11 5 19 10 16 6 -3 9 19 6 43 0 4 5 10 12 15 7 4 14 20
16 36 2 15 4 36 5 46 1 9 5 17 8 17 6 0 8 8 12 50 1 11 6 20 11 20 4 0 5 5 2
10 -3 6 -2 10 2 10 5 0 10 12 11 28 1 15 6 28 12 30 5 2 6 10 3 18 -3 8 0 14
7 14 6 0 9 4 6 8 -7 12 15 82 26 82 4 0 8 5 8 11 0 5 -6 7 -12 3 -9 -5 -9 -2
1 9 7 9 10 17 6 17 -4 0 -2 6 4 13 6 8 8 17 4 20 -3 4 -1 7 6 7 7 0 11 7 8 15
-4 8 -2 17 4 20 5 4 7 10 4 15 -3 5 -1 11 5 15 6 4 8 11 5 16 -4 5 -2 9 3 9 5
0 8 11 7 25 -2 14 1 25 6 25 5 0 9 9 9 20 0 11 5 20 11 20 8 0 7 5 -1 15 -11
13 -10 14 4 9 12 -5 15 -1 14 18 -2 23 -5 24 -73 24 -38 -1 -76 -5 -84 -10 -9
-6 -12 -5 -8 1 10 15 -133 15 -152 0 -12 -9 -13 -9 -7 1 5 9 -2 12 -26 12 -19
0 -40 -6 -47 -12 -11 -10 -13 -10 -7 0 5 9 -4 12 -36 12 -24 0 -50 -6 -57 -12
-8 -7 -11 -8 -8 -2 7 13 -591 13 -612 0 -10 -6 -12 -6 -7 2 10 17 -56 16 -73
0 -11 -10 -13 -10 -7 0 5 8 -2 12 -26 12 -19 0 -40 -6 -47 -12 -11 -10 -13
-10 -7 0 5 8 -2 12 -24 12 -22 0 -29 -4 -24 -12 6 -10 5 -10 -7 -1 -12 10 -15
8 -18 -10z"/>
<path d="M920 3134 c-6 -14 -10 -34 -10 -45 0 -11 -4 -18 -9 -14 -6 3 -8 -4
-6 -15 2 -11 0 -20 -5 -20 -4 0 -7 -8 -6 -17 3 -19 -12 -53 -29 -65 -6 -5 -4
-8 4 -8 12 0 12 -3 3 -12 -7 -7 -12 -22 -12 -35 0 -13 -4 -23 -8 -23 -7 0 -11
-16 -14 -57 -1 -7 -5 -13 -10 -13 -5 0 -7 -9 -3 -19 3 -11 0 -23 -6 -27 -8 -5
-9 -3 -4 6 5 8 4 11 -1 7 -6 -3 -9 -21 -9 -41 1 -19 -2 -33 -7 -30 -4 3 -8 -4
-8 -15 0 -34 0 -35 -14 -56 -7 -11 -12 -28 -10 -37 1 -10 -1 -18 -5 -18 -4 0
-8 -7 -9 -15 -1 -8 -3 -22 -4 -30 -1 -8 -5 -15 -10 -15 -4 0 -7 -3 -7 -7 1 -5
0 -10 -1 -13 -3 -9 -10 -44 -12 -62 -1 -10 -6 -18 -10 -18 -4 0 -8 -10 -8 -23
0 -13 -6 -29 -12 -36 -11 -11 -10 -12 2 -6 13 8 13 7 1 -9 -8 -10 -16 -25 -18
-34 -9 -58 -16 -82 -22 -82 -4 0 -8 -7 -9 -15 -1 -8 -3 -22 -4 -30 -1 -8 -5
-15 -9 -15 -4 0 -6 -9 -4 -20 2 -11 -3 -24 -13 -30 -12 -6 -13 -9 -3 -10 11 0
11 -3 1 -15 -7 -8 -9 -15 -5 -15 4 0 2 -7 -5 -15 -7 -8 -9 -15 -5 -15 4 0 2
-6 -4 -14 -6 -7 -12 -25 -13 -40 -1 -14 -6 -26 -10 -26 -4 0 -7 -3 -6 -7 1 -5
-6 -35 -16 -68 -10 -33 -19 -66 -19 -72 0 -7 -4 -13 -8 -13 -5 0 -6 -6 -3 -14
3 -8 1 -17 -5 -21 -6 -3 -11 -16 -11 -29 0 -12 -3 -26 -7 -30 -4 -3 -8 -13
-10 -21 -7 -35 -9 -41 -16 -52 -5 -7 -5 -13 -1 -13 3 0 2 -6 -3 -12 -6 -7 -9
-21 -8 -31 2 -10 -1 -14 -8 -10 -6 4 -8 0 -4 -10 3 -10 2 -17 -3 -17 -6 0 -9
-3 -9 -7 1 -5 0 -10 -1 -13 -1 -3 -4 -18 -6 -35 -3 -16 -10 -35 -16 -42 -6 -7
-8 -19 -5 -27 3 -8 -1 -17 -9 -20 -9 -4 -13 -15 -10 -31 3 -14 0 -25 -6 -25
-6 0 -8 -3 -5 -7 4 -3 2 -12 -4 -20 -6 -7 -9 -22 -6 -33 3 -11 0 -18 -6 -17
-5 1 -11 -10 -12 -24 -1 -14 -5 -31 -9 -37 -7 -12 -14 -38 -23 -84 -3 -15 -9
-26 -13 -23 -5 3 -6 -5 -2 -17 3 -11 1 -19 -4 -16 -5 4 -10 -4 -11 -15 -3 -27
-8 -47 -17 -69 -4 -9 -8 -22 -10 -30 -1 -7 -5 -18 -9 -25 -4 -6 -8 -23 -9 -37
-1 -14 -5 -26 -9 -26 -3 0 -6 -6 -7 -12 -2 -23 -7 -43 -15 -55 -5 -7 -5 -17
-2 -23 3 -5 2 -10 -3 -10 -5 0 -9 -6 -10 -12 -6 -46 -16 -78 -25 -78 -6 0 -8
-3 -4 -6 3 -3 -1 -23 -8 -44 -7 -21 -11 -41 -8 -44 4 -3 1 -6 -6 -6 -7 0 -9
-4 -6 -10 3 -5 2 -10 -4 -10 -6 0 -8 -7 -5 -15 4 -8 1 -15 -5 -15 -6 0 -8 -7
-5 -15 4 -8 1 -22 -6 -30 -6 -8 -9 -18 -6 -24 3 -5 1 -11 -6 -13 -6 -2 -9 -12
-5 -21 5 -15 62 -16 669 -14 524 2 662 5 660 15 -1 6 3 12 10 12 6 0 9 3 5 6
-3 4 0 23 8 43 16 43 29 93 27 104 -1 4 2 7 7 7 5 0 8 11 7 25 -2 15 1 22 7
18 6 -4 8 0 4 10 -3 10 -3 17 2 17 8 0 26 66 23 82 -1 5 3 8 9 8 6 0 9 7 5 15
-3 8 -1 15 3 15 5 0 8 11 6 25 -1 14 1 25 5 25 9 0 30 71 24 82 -3 4 0 8 6 8
7 0 9 7 6 15 -3 9 1 18 10 22 13 5 13 7 2 14 -9 6 -9 9 -1 9 6 0 10 9 8 20 -2
11 0 20 6 20 5 0 9 12 9 26 0 16 4 23 12 18 7 -4 8 -3 4 4 -4 6 0 27 8 47 9
20 11 33 5 30 -5 -4 -1 8 9 27 10 18 17 40 17 48 -1 8 6 24 14 34 14 16 14 18
1 11 -13 -8 -13 -7 -1 8 7 9 10 17 6 17 -4 0 -2 7 5 15 7 8 9 15 5 15 -4 0 -2
7 5 15 7 9 14 26 14 38 1 12 5 28 9 35 5 6 5 17 2 22 -3 5 -1 10 5 10 6 0 9 4
5 9 -3 6 4 26 15 45 13 25 16 36 7 36 -8 1 -7 5 3 13 9 7 15 19 15 27 0 8 7
36 17 61 9 26 14 49 11 53 -4 3 -2 6 4 6 5 0 10 7 11 15 1 8 3 22 4 30 1 8 5
15 9 15 5 0 6 7 3 15 -4 8 -2 15 3 15 5 0 10 12 11 27 1 15 6 29 10 32 4 3 7
13 7 21 -1 8 3 24 9 35 6 11 11 25 12 30 2 26 27 105 33 105 3 0 7 11 7 25 1
14 5 33 9 43 5 9 9 24 11 33 2 9 9 29 15 45 7 16 13 36 13 44 0 8 6 19 14 23
10 7 10 12 1 23 -9 11 -9 14 0 14 7 0 10 4 6 9 -3 5 -1 12 5 16 5 3 10 17 10
30 0 13 5 27 10 30 6 4 8 10 5 15 -3 5 2 16 11 24 8 9 11 16 5 16 -6 0 -4 13
4 34 8 18 11 36 8 40 -4 3 0 6 7 6 7 0 11 3 7 6 -3 4 0 22 9 42 8 19 17 49 20
66 3 17 8 33 12 36 4 3 7 12 7 20 -1 8 4 21 9 29 6 8 10 16 9 18 -6 8 -2 24 5
20 4 -3 8 9 9 26 4 50 6 57 15 57 5 0 7 4 4 9 -3 5 1 23 10 40 8 17 13 35 9
41 -3 5 -1 10 5 10 7 0 10 7 6 15 -3 8 0 20 7 27 7 7 12 19 13 26 1 6 2 21 2
33 1 12 6 17 14 13 7 -4 8 -3 4 5 -4 6 -2 19 6 28 11 14 11 16 -2 8 -12 -7
-11 -3 3 18 9 15 15 27 11 27 -4 0 -1 7 6 15 11 13 -63 15 -659 15 l-671 0
-10 -26z"/>
</g>
</svg>
