<?xml version="1.0" standalone="no"?>
<!DOCTYPE svg PUBLIC "-//W3C//DTD SVG 20010904//EN"
 "http://www.w3.org/TR/2001/REC-SVG-20010904/DTD/svg10.dtd">
<svg version="1.0" xmlns="http://www.w3.org/2000/svg"
 width="960.000000pt" height="960.000000pt" viewBox="0 0 960.000000 960.000000"
 preserveAspectRatio="xMidYMid meet">
<metadata>
Created by potrace 1.11, written by Peter Selinger 2001-2013
</metadata>
<g transform="translate(0.000000,960.000000) scale(0.100000,-0.100000)"
fill="#000000" stroke="none">
<path d="M1865 5895 c-9 -8 -43 -103 -49 -140 -1 -5 -7 -20 -14 -31 -6 -12 -9
-24 -5 -27 3 -4 0 -14 -7 -22 -10 -12 -10 -19 -2 -27 7 -7 12 -9 12 -5 0 4 10
3 21 -4 12 -6 19 -7 16 -2 -3 4 44 8 104 8 66 0 109 -4 109 -10 0 -5 -14 -53
-31 -105 -17 -52 -33 -102 -34 -110 -2 -8 -4 -16 -5 -17 -2 -2 -3 -6 -4 -10
-1 -5 -6 -23 -10 -40 -4 -18 -12 -33 -17 -33 -6 0 -8 -4 -5 -8 3 -5 -6 -44
-20 -88 -14 -43 -27 -90 -30 -103 -3 -14 -8 -29 -12 -35 -4 -6 -7 -13 -8 -16
-9 -52 -18 -80 -23 -80 -4 0 -8 -6 -8 -12 0 -7 -6 -33 -13 -58 -8 -25 -14 -47
-15 -50 -1 -3 -9 -30 -18 -60 -9 -30 -17 -58 -17 -62 -1 -4 -7 -23 -15 -42 -8
-18 -11 -36 -8 -40 4 -3 2 -6 -4 -6 -5 0 -10 -6 -11 -12 -1 -20 -6 -36 -37
-133 -16 -49 -30 -93 -31 -97 -1 -5 -3 -10 -4 -13 -1 -3 -3 -8 -4 -12 -7 -37
-31 -111 -39 -121 -5 -7 -7 -15 -4 -19 3 -3 0 -18 -9 -34 -8 -16 -15 -32 -15
-36 -2 -14 -6 -27 -17 -63 -27 -87 -62 -206 -64 -215 -1 -5 -12 -39 -24 -75
-13 -35 -21 -66 -19 -69 8 -8 467 -3 475 6 6 7 49 135 55 168 2 6 10 33 20 60
15 44 20 63 28 100 2 6 5 15 9 20 3 6 9 26 13 45 4 19 12 41 17 48 6 6 7 12 3
12 -4 0 -2 7 5 15 7 8 10 15 7 15 -4 0 1 19 9 43 9 23 18 51 20 62 3 11 7 27
9 35 2 8 4 15 5 15 1 0 3 7 5 15 2 8 11 38 20 65 10 28 18 55 19 60 2 6 20 64
41 130 21 66 38 126 38 133 0 6 4 12 9 12 4 0 7 3 6 8 -1 4 4 27 11 52 7 25
15 52 16 60 2 8 4 16 5 18 2 1 3 5 5 10 1 4 4 14 7 22 3 8 12 36 18 63 7 26
17 47 22 47 5 0 7 4 3 9 -3 5 -1 20 4 33 4 13 13 39 19 58 41 136 80 261 111
357 20 61 32 109 26 105 -6 -3 -5 0 1 9 6 8 17 32 23 54 7 22 15 47 18 55 3 8
8 24 10 34 2 11 10 32 17 48 11 21 11 30 3 35 -19 12 -728 10 -742 -2z"/>
<path d="M1205 5571 c-12 -55 -37 -137 -46 -153 -22 -43 -16 -45 129 -46 75 0
145 -1 154 -1 16 -1 16 -4 2 -48 -9 -27 -24 -75 -34 -108 -11 -33 -33 -105
-50 -160 -17 -55 -33 -104 -34 -110 -1 -5 -13 -44 -26 -85 -14 -41 -24 -81
-23 -87 0 -7 -3 -13 -8 -13 -5 0 -8 -3 -7 -7 1 -5 -4 -26 -10 -48 -6 -22 -11
-43 -12 -48 0 -4 -7 -21 -15 -37 -9 -17 -13 -30 -11 -30 3 0 -4 -26 -15 -57
-22 -61 -23 -65 -41 -143 -1 -8 -6 -17 -10 -20 -4 -3 -9 -17 -12 -30 -3 -14
-10 -41 -16 -60 -6 -19 -13 -42 -15 -50 -2 -8 -10 -34 -19 -58 -8 -23 -15 -43
-14 -45 1 -2 -20 -72 -29 -97 -3 -8 -8 -24 -10 -35 -2 -11 -8 -24 -13 -29 -4
-4 -6 -15 -3 -22 3 -8 1 -14 -4 -14 -8 0 -12 -15 -15 -57 -1 -7 -6 -13 -11
-13 -6 0 -8 -3 -4 -6 3 -3 -1 -23 -8 -45 -8 -21 -11 -40 -7 -40 4 -1 105 -2
224 -3 l216 -2 18 55 c17 53 20 64 27 94 1 6 5 17 9 22 3 6 9 26 13 45 4 19
12 41 19 49 6 8 10 17 9 20 -1 3 3 24 9 46 6 22 12 42 13 45 5 26 39 129 46
143 5 10 7 22 4 27 -4 6 -1 10 5 10 6 0 9 4 6 8 -3 5 1 19 8 33 7 13 13 27 14
32 0 4 4 23 8 42 3 19 10 38 15 41 5 3 7 10 3 15 -3 5 0 16 6 24 7 8 9 15 5
15 -4 0 -2 7 5 15 6 8 9 19 5 25 -3 5 -1 10 4 10 6 0 10 3 10 8 -1 4 0 10 1
15 1 4 3 10 4 15 2 4 8 27 16 52 7 25 13 51 13 58 0 6 4 12 9 12 4 0 7 3 6 8
-2 11 12 65 23 85 5 10 7 22 4 27 -4 6 -1 10 4 10 6 0 10 3 9 8 -2 7 18 86 29
112 3 8 8 22 10 30 5 19 9 32 16 50 16 43 29 88 34 115 3 17 9 35 13 40 5 6
11 27 15 48 4 20 11 37 17 37 5 0 7 4 4 8 -2 4 4 35 15 67 11 33 21 67 23 75
7 36 20 76 32 99 7 13 11 28 9 31 -2 4 -175 7 -384 7 l-380 0 -6 -26z"/>
<path d="M645 5322 c-18 -2 -39 -45 -50 -102 -1 -3 -12 -39 -25 -80 -13 -41
-23 -77 -23 -80 1 -3 -2 -9 -6 -15 -5 -5 -11 -23 -15 -40 -12 -51 -68 -229
-76 -240 -4 -5 -6 -18 -5 -27 2 -10 0 -18 -4 -18 -4 0 -8 -6 -9 -12 -1 -20 -9
-50 -22 -83 -7 -16 -14 -41 -16 -54 -3 -14 -8 -29 -12 -35 -3 -6 -7 -15 -8
-21 -1 -5 -10 -37 -20 -70 -10 -33 -19 -62 -19 -65 -1 -3 -5 -12 -8 -20 -3 -8
-13 -42 -22 -75 -9 -33 -19 -67 -22 -75 -4 -8 -7 -18 -8 -22 -2 -5 -4 -10 -5
-13 -1 -3 -3 -8 -4 -12 -1 -5 -12 -41 -25 -81 -13 -40 -24 -78 -25 -85 -1 -7
-5 -18 -10 -26 -5 -7 -9 -21 -10 -30 -1 -15 -19 -75 -33 -111 -3 -8 -8 -25
-10 -37 l-4 -23 376 0 c292 0 377 3 380 13 2 6 16 53 30 102 15 50 33 107 41
128 7 20 12 37 9 37 -3 0 1 13 10 30 8 16 15 32 15 35 1 23 14 65 22 65 5 0 7
4 4 9 -3 5 1 30 10 57 20 62 23 73 24 79 0 3 8 24 16 47 9 24 18 54 20 67 3
13 9 31 13 40 5 9 9 19 10 24 1 4 2 9 2 12 1 3 3 10 4 15 1 6 4 12 5 15 1 3 3
8 4 13 1 4 13 41 25 82 13 41 24 80 26 85 1 6 5 19 9 30 16 42 26 72 46 145
12 41 24 82 27 90 8 19 7 16 22 70 6 25 15 52 18 60 3 8 7 20 8 25 5 22 37
121 46 143 5 13 9 26 9 30 0 7 -691 10 -735 4z"/>
<path d="M4984 5036 c-91 -29 -150 -90 -176 -180 -17 -62 -18 -803 0 -879 33
-147 135 -215 306 -205 75 5 137 28 173 66 66 68 83 127 86 295 l2 118 -94 -3
-94 -3 -2 -122 c-1 -104 -4 -125 -20 -143 -25 -27 -72 -39 -112 -27 -61 19
-63 31 -63 451 0 400 3 431 48 455 36 19 87 13 116 -14 28 -26 28 -24 31 -135
2 -41 3 -81 4 -87 1 -9 26 -13 91 -13 l90 0 1 38 c2 69 -1 157 -7 187 -17 84
-72 155 -148 190 -51 23 -177 29 -232 11z"/>
<path d="M6374 5036 c-61 -19 -95 -43 -132 -91 -56 -74 -72 -211 -38 -330 23
-76 69 -138 202 -270 66 -66 128 -137 138 -159 20 -43 29 -149 16 -183 -19
-48 -94 -70 -145 -43 -33 18 -49 62 -47 131 l1 59 -39 1 c-22 0 -60 0 -85 0
-25 0 -50 0 -55 0 -15 -1 -10 -124 7 -190 31 -120 112 -182 249 -189 208 -11
317 97 317 313 -1 160 -36 226 -212 397 -142 138 -165 176 -166 271 0 63 2 71
28 93 32 28 75 31 117 9 33 -17 43 -45 44 -118 0 -33 5 -48 16 -51 24 -6 154
-2 166 6 14 9 8 85 -12 165 -20 76 -74 142 -136 168 -53 22 -179 28 -234 11z"/>
<path d="M8374 5031 c-28 -9 -65 -28 -82 -41 -41 -33 -80 -114 -89 -186 -8
-59 -8 -786 0 -814 2 -8 7 -28 12 -45 16 -59 62 -114 125 -146 39 -21 59 -24
145 -24 85 0 107 3 145 23 77 40 123 107 136 198 8 55 12 223 6 242 -3 8 -31
12 -93 12 l-89 0 -1 -102 c-1 -130 -4 -148 -33 -177 -34 -33 -100 -32 -135 4
l-26 25 0 403 c0 454 -1 449 71 463 88 16 124 -32 124 -168 l0 -88 89 0 c62 0
90 4 93 13 2 6 3 55 2 107 -4 158 -50 246 -154 293 -61 28 -177 32 -246 8z"/>
<path d="M4250 5020 c-5 -9 -11 -36 -15 -60 -7 -49 -6 -45 -35 -216 -11 -66
-22 -137 -26 -159 -3 -22 -16 -103 -29 -180 -13 -77 -27 -158 -29 -180 -3 -22
-8 -51 -11 -65 -3 -14 -8 -45 -11 -70 -3 -25 -16 -102 -29 -172 -15 -87 -18
-128 -11 -129 50 -4 158 -4 165 0 5 3 12 26 15 51 3 25 8 54 10 65 2 11 7 44
11 73 l7 52 112 0 112 0 2 -27 c1 -16 4 -39 7 -53 3 -14 8 -50 11 -80 10 -85
10 -85 113 -85 107 0 101 -14 72 158 -11 62 -22 128 -25 147 -3 19 -7 44 -10
55 -2 11 -7 40 -10 65 -3 25 -8 54 -10 65 -3 18 -12 73 -21 135 -5 33 -10 62
-35 210 -12 69 -23 136 -25 150 -2 14 -9 57 -15 95 -7 39 -14 86 -17 105 -2
19 -6 40 -8 47 -3 8 -44 13 -130 15 -106 2 -128 0 -135 -12z m144 -347 c3 -27
10 -79 16 -118 6 -38 13 -90 15 -115 3 -25 8 -56 10 -70 9 -52 24 -164 22
-166 -10 -9 -179 -6 -174 4 3 4 8 32 12 62 3 30 8 62 10 70 2 8 6 40 10 71 3
31 8 67 10 80 3 13 7 42 10 64 7 69 25 189 32 220 6 30 7 29 14 -12 4 -24 10
-64 13 -90z"/>
<path d="M2683 4943 l2 -88 85 -2 c47 -1 92 -2 101 -2 14 -1 15 -56 15 -531
-1 -346 2 -530 9 -531 6 -1 49 -2 97 -3 70 -1 88 2 90 14 2 8 3 248 2 533 l0
517 30 1 c17 1 63 2 101 2 l70 2 3 88 3 87 -305 0 -304 0 1 -87z"/>
<path d="M3384 4413 c0 -340 3 -620 7 -623 4 -3 47 -5 96 -5 l88 0 3 267 2
268 65 -4 c115 -5 123 -24 125 -275 1 -186 6 -250 19 -252 32 -5 198 -2 194 3
-11 19 -15 67 -17 258 -4 259 -20 316 -100 357 -27 14 -28 16 -10 26 79 42
112 127 108 287 -2 114 -19 181 -59 228 -58 67 -91 76 -320 80 l-200 4 -1
-619z m343 421 c34 -21 46 -76 40 -179 -7 -130 -25 -151 -134 -158 l-53 -3 0
177 0 178 28 3 c42 5 95 -2 119 -18z"/>
<path d="M5492 4408 l3 -623 85 0 c47 -1 90 1 97 3 9 3 12 56 11 197 l0 194
36 77 c20 42 39 75 41 72 4 -4 120 -385 144 -473 19 -68 20 -69 125 -70 68 -1
96 3 96 11 0 6 -38 137 -84 290 -46 154 -89 295 -94 314 -6 19 -20 66 -31 105
l-21 69 102 201 c55 110 107 209 114 220 8 11 14 23 14 27 0 5 -44 8 -97 8
l-98 0 -34 -73 c-33 -70 -131 -276 -184 -387 -21 -43 -26 -50 -27 -30 0 14 -1
130 -1 258 l0 232 -100 0 -99 0 2 -622z"/>
<path d="M6875 4410 c0 -341 2 -621 5 -621 20 -5 172 -4 181 1 6 4 10 99 10
253 l1 247 42 1 c143 2 200 18 259 73 67 64 81 116 81 301 0 135 -2 156 -23
208 -29 70 -84 121 -155 142 -36 11 -99 15 -225 15 l-176 0 0 -620z m343 428
c33 -17 44 -70 40 -201 -4 -147 -12 -159 -117 -165 l-69 -4 0 190 c-1 214 -6
201 78 194 25 -2 55 -8 68 -14z"/>
<path d="M7649 5028 c-3 -11 -8 -39 -14 -73 -3 -22 -10 -65 -15 -95 -5 -30
-12 -73 -15 -95 -3 -22 -7 -47 -10 -55 -2 -8 -6 -37 -10 -65 -3 -27 -10 -68
-15 -90 -5 -22 -11 -60 -14 -85 -3 -25 -8 -56 -10 -70 -5 -26 -34 -202 -42
-255 -2 -16 -9 -55 -14 -85 -5 -30 -12 -73 -15 -95 -3 -22 -8 -46 -10 -53 -3
-7 -7 -38 -11 -70 l-6 -58 86 1 c47 0 87 3 90 6 5 5 14 49 21 104 1 11 6 46
10 78 l7 57 114 0 c101 0 113 -2 112 -17 0 -10 2 -31 5 -47 7 -34 17 -100 21
-136 1 -14 5 -30 8 -36 4 -5 46 -9 95 -8 106 2 105 2 100 12 -3 4 -8 27 -11
52 -3 25 -8 56 -11 70 -2 13 -7 42 -10 65 -3 22 -13 81 -21 130 -8 50 -17 101
-19 115 -2 14 -13 81 -25 150 -25 151 -27 163 -35 220 -3 25 -8 52 -10 60 -3
8 -7 31 -9 50 -3 19 -7 49 -10 65 -2 17 -7 46 -10 65 -3 19 -8 44 -10 55 -2
12 -7 46 -11 78 l-7 57 -134 0 c-74 0 -134 -1 -135 -2z m136 -293 c4 -39 9
-73 11 -76 1 -3 6 -30 9 -60 3 -30 8 -61 10 -69 2 -8 7 -40 10 -70 3 -30 8
-68 11 -85 3 -16 7 -41 9 -55 1 -14 6 -46 10 -72 l7 -46 -82 -4 c-57 -2 -84 1
-87 9 -3 6 0 45 6 85 13 84 18 121 37 263 3 28 8 57 9 66 2 9 6 38 10 65 3 27
8 58 10 69 2 11 4 29 4 39 2 38 10 9 16 -59z"/>
<path d="M8893 4410 c0 -432 4 -620 11 -623 10 -3 500 -1 518 2 3 0 6 40 5 88
l-2 88 -167 0 -168 0 0 190 0 191 132 0 133 -1 2 86 c3 76 1 87 -15 91 -9 2
-70 4 -134 3 l-118 -1 0 166 0 165 167 0 168 0 2 88 1 87 -268 0 -268 0 1
-620z"/>
</g>
</svg>
